<?xml version="1.0" encoding="utf-8"?>
<!-- Generator: Adobe Illustrator 13.0.1, SVG Export Plug-In . SVG Version: 6.00 Build 14948)  -->
<!DOCTYPE svg PUBLIC "-//W3C//DTD SVG 1.1//EN" "http://www.w3.org/Graphics/SVG/1.1/DTD/svg11.dtd">
<svg version="1.1" id="Layer_1" xmlns="http://www.w3.org/2000/svg" xmlns:xlink="http://www.w3.org/1999/xlink" x="0px" y="0px"
	 width="578.031px" height="573.407px" viewBox="0 0 578.031 573.407" enable-background="new 0 0 578.031 573.407"
	 xml:space="preserve">
<g>
	<g>
		<path fill-rule="evenodd" clip-rule="evenodd" d="M485.546,215.028c0.505,82.199-6.939,156.45-69.363,175.722
			c12.814,27.055,3.407,70.28-9.249,92.484c-23.616,22.689-32.12,82.336-78.612,67.052c-6.738-21.463,1.369-57.76-2.312-76.3
			c-24.545-9.366-54.743-13.08-85.549-16.186c-17.162,16.082-10.837,60.697-34.682,64.74c-44.234,7.5-36.104-89.508-25.434-124.855
			C114.462,371.105,41.78,329.19,69.364,224.276c35.893,70.199,142.583,20.764,159.537-39.306
			c-7.759,117.466,173.826,135.08,228.9,64.739c23.916-69.958-24.412-119.947-73.988-138.728
			c44.716-31.584,95.337-57.264,164.161-64.739c25.869,14.058,7.379,50.425-4.624,80.924
			C528.922,163.824,510.274,192.91,485.546,215.028z"/>
		<path fill-rule="evenodd" clip-rule="evenodd" d="M326.01,94.797c-25.935,7.015-64.204,15.986-76.3,43.93
			c-9.259-9.533,0.986-39.472-18.497-43.93C256.74,79.817,300.563,80.772,326.01,94.797z"/>
		<path fill-rule="evenodd" clip-rule="evenodd" d="M184.97,136.416c2.278,10.039-8.327,27.086-11.561,39.306
			C170.77,165.322,180.448,147.347,184.97,136.416z"/>
		<path fill-rule="evenodd" clip-rule="evenodd" d="M314.449,145.664c5.016,8.382-6.828,37.108-13.873,48.554
			C301.982,174.815,310.708,162.732,314.449,145.664z"/>
		<path fill-rule="evenodd" clip-rule="evenodd" d="M101.733,159.537c5.191-20.84,27.949-69.74,46.243-92.485
			c23.802-29.594,49.278-1.22,71.676,20.809C174.877,97.189,129.349,125.382,101.733,159.537z"/>
		<g>
		</g>
	</g>
</g>
</svg>
